<svg width="508" height="508" viewBox="0 0 508 508" fill="none" xmlns="http://www.w3.org/2000/svg">
<circle cx="254" cy="254" r="254" fill="#D05F5F" fill-opacity="0.2"/>
<path d="M201.734 321.656C202.387 323.511 203.14 325.329 203.991 327.102V327.107C204.68 328.55 205.429 329.956 206.238 331.326H300.63V331.515C301.486 330.085 302.273 328.613 302.992 327.098C303.844 325.327 304.597 323.51 305.248 321.656H201.734ZM204.113 327.045V326.165H302.882V327.045H204.113ZM211.471 338.721H295.511C297.235 336.667 298.806 334.489 300.213 332.205H206.769C208.176 334.489 209.747 336.667 211.471 338.721V338.721Z" fill="#3F3D56"/>
<path d="M306.723 316.72C306.385 318.097 305.99 319.447 305.547 320.776H201.436C200.992 319.447 200.597 318.097 200.259 316.72H306.723Z" fill="#3F3D56"/>
<path d="M306.789 316.46V315.84H200.193V316.46C199.82 314.929 199.511 313.37 199.267 311.784H307.715C307.474 313.368 307.165 314.926 306.789 316.46Z" fill="#3F3D56"/>
<path d="M199.074 305.968V306.848H308.246C308.163 308.216 308.031 309.567 307.843 310.904H199.14C198.955 309.575 198.819 308.229 198.74 306.865C198.661 305.713 198.626 304.551 198.626 303.377C198.626 302.585 198.644 301.797 198.675 301.014V301.005C198.749 299.338 198.893 297.693 199.105 296.069V296.065C199.289 294.706 199.519 293.362 199.794 292.035H307.013V291.235C307.373 292.827 307.66 294.446 307.873 296.091H199.298V296.971H307.983C308.128 298.199 308.23 299.436 308.29 300.684L308.304 301.027H199.188V301.907H308.334C308.352 302.396 308.356 302.884 308.356 303.377C308.356 304.248 308.334 305.11 308.295 305.968H199.074Z" fill="#3F3D56"/>
<path d="M306.995 291.155H199.987C200.299 289.783 200.66 288.431 201.071 287.099H305.893V287.051C306.315 288.397 306.679 289.765 306.995 291.155Z" fill="#3F3D56"/>
<path d="M305.63 286.219H201.352C201.897 284.548 202.519 282.914 203.218 281.319V282.159H303.764V281.323C304.462 282.915 305.084 284.548 305.63 286.219Z" fill="#3F3D56"/>
<path d="M303.742 281.279H203.236C203.841 279.898 204.504 278.545 205.224 277.223H301.64V277.003C302.403 278.393 303.104 279.818 303.742 281.279Z" fill="#3F3D56"/>
<path d="M301.271 276.343H205.707C210.488 267.861 217.431 260.803 225.826 255.892C234.222 250.982 243.768 248.394 253.489 248.394C263.21 248.394 272.756 250.982 281.152 255.892C289.547 260.803 296.49 267.861 301.271 276.343V276.343Z" fill="#3F3D56"/>
<path opacity="0.5" d="M200.193 316.46C200.211 316.548 200.233 316.635 200.259 316.72H200.193V316.46Z" fill="black"/>
<path opacity="0.5" d="M306.789 316.46V316.72H306.723C306.75 316.635 306.772 316.548 306.789 316.46V316.46Z" fill="black"/>
<path opacity="0.5" d="M308.356 305.968V306.848H308.247C308.255 306.738 308.264 306.628 308.269 306.518C308.277 306.333 308.286 306.153 308.295 305.968H308.356Z" fill="black"/>
<path opacity="0.5" d="M308.356 301.027V301.907H308.334C308.33 301.613 308.317 301.322 308.303 301.027H308.356Z" fill="black"/>
<path opacity="0.5" d="M307.013 291.155V291.235C307.009 291.208 307 291.182 306.995 291.155H307.013Z" fill="black"/>
<path opacity="0.5" d="M203.218 281.279H203.236C203.232 281.293 203.226 281.306 203.218 281.319V281.279Z" fill="black"/>
<path opacity="0.5" d="M303.764 281.279V281.323C303.758 281.308 303.751 281.293 303.742 281.279H303.764Z" fill="black"/>
<path opacity="0.5" d="M298.167 271.406H208.815V272.285H298.167V271.406Z" fill="black"/>
<path opacity="0.5" d="M294.696 266.468H212.51V267.348H294.696V266.468Z" fill="black"/>
<path opacity="0.5" d="M289.433 261.531H217.549V262.411H289.433V261.531Z" fill="black"/>
<path opacity="0.5" d="M282.826 256.592L223.035 256.709L223.036 257.588L282.828 257.471L282.826 256.592Z" fill="black"/>
<path d="M245.536 274.486H219.335V332.666H245.536V274.486Z" fill="#E6E6E6"/>
<path d="M231.321 279.964H232.43C234.065 279.964 235.633 280.615 236.789 281.774C237.944 282.932 238.594 284.503 238.594 286.141V294.887H225.157V286.141C225.157 284.503 225.807 282.932 226.963 281.774C228.119 280.615 229.686 279.964 231.321 279.964V279.964Z" fill="#3F3D56"/>
<path d="M279.244 273.977C281.026 273.977 282.735 274.687 283.994 275.949C285.254 277.212 285.962 278.924 285.962 280.71V291.707H272.526V280.71C272.526 278.924 273.234 277.212 274.494 275.949C275.753 274.687 277.462 273.977 279.244 273.977Z" fill="#E6E6E6"/>
<path d="M304.773 296.419C304.773 296.944 304.744 297.469 304.686 297.99H253.491V295.073H304.708C304.751 295.519 304.772 295.968 304.773 296.419Z" fill="#E6E6E6"/>
<path d="M260.838 286.571L261.335 285.8C261.188 285.391 261.017 284.992 260.825 284.602L260.503 284.863L260.758 284.468C260.515 283.989 260.324 283.687 260.324 283.687C259.711 284.691 259.261 285.787 258.992 286.932L259.631 287.921L258.924 287.349C258.899 287.543 258.886 287.739 258.885 287.935C258.885 289.912 259.529 291.514 260.324 291.514C261.119 291.514 261.763 289.912 261.763 287.935C261.748 287.306 261.637 286.684 261.434 286.089L260.838 286.571Z" fill="#D05F5F"/>
<path d="M264.36 288.284L265.256 288.092C265.44 287.698 265.602 287.295 265.74 286.883L265.329 286.839L265.787 286.741C265.954 286.23 266.032 285.881 266.032 285.881C264.89 286.157 263.799 286.613 262.8 287.232L262.554 288.384L262.458 287.478C262.303 287.598 262.156 287.727 262.017 287.866C260.622 289.263 259.947 290.852 260.509 291.416C261.071 291.979 262.657 291.302 264.051 289.904C264.485 289.449 264.846 288.93 265.122 288.365L264.36 288.284Z" fill="#D05F5F"/>
<path d="M264.687 295.932C262.61 296.065 260.347 295.924 257.939 295.932V290.408C260.178 290.722 262.449 290.722 264.687 290.408V295.932Z" fill="#E6E6E6"/>
<path d="M294.652 286.571L295.15 285.8C295.003 285.391 294.832 284.992 294.64 284.602L294.318 284.863L294.573 284.468C294.33 283.989 294.139 283.687 294.139 283.687C293.526 284.691 293.076 285.787 292.807 286.932L293.446 287.921L292.739 287.349C292.714 287.543 292.701 287.739 292.7 287.935C292.7 289.912 293.344 291.514 294.139 291.514C294.933 291.514 295.577 289.912 295.577 287.935C295.562 287.306 295.451 286.684 295.248 286.089L294.652 286.571Z" fill="#D05F5F"/>
<path d="M298.175 288.284L299.071 288.092C299.255 287.698 299.416 287.295 299.555 286.883L299.143 286.839L299.602 286.741C299.768 286.23 299.846 285.881 299.846 285.881C298.704 286.157 297.614 286.613 296.615 287.232L296.369 288.384L296.273 287.478C296.118 287.598 295.97 287.727 295.831 287.866C294.437 289.263 293.762 290.852 294.324 291.416C294.886 291.979 296.472 291.302 297.866 289.904C298.299 289.449 298.66 288.93 298.936 288.365L298.175 288.284Z" fill="#D05F5F"/>
<path d="M298.502 295.932C296.425 296.065 294.162 295.924 291.754 295.932V290.408C293.992 290.722 296.264 290.722 298.502 290.408V295.932Z" fill="#E6E6E6"/>
<path d="M222.47 307.543C223.954 307.543 225.157 306.528 225.157 305.276C225.157 304.025 223.954 303.01 222.47 303.01C220.986 303.01 219.783 304.025 219.783 305.276C219.783 306.528 220.986 307.543 222.47 307.543Z" fill="#3F3D56"/>
<path d="M380.891 373.383C352.791 413.601 306.21 439.901 253.5 439.901C200.158 439.901 153.094 412.968 125.109 371.931C149.209 326.024 198.143 337.397 253.5 337.397C309.436 337.397 357.045 326.689 380.891 373.383Z" fill="#D05F5F"/>
<path d="M253.5 348.395C306.709 348.395 352.38 338.71 377.233 377.957C378.484 376.31 379.703 374.639 380.891 372.943C357.045 326.249 309.436 336.957 253.5 336.957C198.143 336.957 149.209 325.584 125.109 371.491C126.3 373.238 127.527 374.959 128.788 376.653C153.97 338.102 200.827 348.395 253.5 348.395Z" fill="#3F3D56"/>
<path d="M253.5 441C215.348 440.97 178.525 426.958 149.969 401.602C121.413 376.247 103.098 341.301 98.4744 303.349C93.8508 265.397 103.238 227.061 124.868 195.566C146.497 164.07 178.875 141.591 215.899 132.363C252.923 123.136 292.036 127.798 325.868 145.471C359.699 163.144 385.912 192.607 399.566 228.308C413.221 264.009 413.373 303.483 399.996 339.289C386.618 375.095 360.634 404.761 326.941 422.696C304.322 434.725 279.105 441.009 253.5 441V441ZM253.5 128.649C229.933 128.66 206.679 134.049 185.5 144.409C164.322 154.768 145.776 169.826 131.27 188.438C116.764 207.051 106.678 228.731 101.778 251.832C96.8786 274.933 97.2935 298.849 102.991 321.765C108.689 344.681 119.521 365.996 134.664 384.093C149.807 402.189 168.863 416.591 190.388 426.207C211.913 435.822 235.341 440.399 258.893 439.589C282.446 438.779 305.505 432.603 326.322 421.531C347.979 409.938 366.611 393.4 380.711 373.255C395.737 351.68 405.064 326.643 407.823 300.479C410.581 274.315 406.681 247.877 396.487 223.632V223.632C384.624 195.457 364.73 171.415 339.295 154.519C313.86 137.623 284.015 128.624 253.5 128.649V128.649Z" fill="#3F3D56"/>
<path d="M253.5 440.12C233.062 440.125 212.823 436.094 193.94 428.258C175.057 420.422 157.9 408.935 143.448 394.452C128.996 379.969 117.534 362.775 109.714 343.852C101.895 324.928 97.8733 304.646 97.8779 284.165C97.8779 198.17 167.69 128.209 253.5 128.209C339.31 128.209 409.122 198.17 409.122 284.165C409.192 316.133 399.393 347.341 381.07 373.51V373.51C366.707 394.064 347.616 410.849 325.41 422.443C303.204 434.038 278.539 440.101 253.5 440.12V440.12ZM253.5 129.529C168.416 129.529 99.1949 198.898 99.1949 284.165C99.1974 317.063 109.669 349.104 129.087 375.629C148.506 402.155 175.859 421.784 207.172 431.663C238.485 441.542 272.126 441.157 303.206 430.562C334.285 419.968 361.183 399.718 379.991 372.754V372.754C398.159 346.806 407.874 315.862 407.805 284.165C407.805 198.898 338.584 129.529 253.5 129.529V129.529Z" fill="#3F3D56"/>
<path d="M154.947 199.698C178.101 199.698 196.87 180.888 196.87 157.685C196.87 134.481 178.101 115.671 154.947 115.671C131.793 115.671 113.023 134.481 113.023 157.685C113.023 180.888 131.793 199.698 154.947 199.698Z" fill="#FF6584"/>
<path d="M332.031 211.857C371.671 211.857 403.806 179.654 403.806 139.929C403.806 100.204 371.671 68 332.031 68C292.391 68 260.256 100.204 260.256 139.929C260.256 179.654 292.391 211.857 332.031 211.857Z" fill="#D05F5F"/>
<path opacity="0.2" d="M385.422 91.886C392.117 107.58 393.025 125.149 387.984 141.453C382.943 157.756 372.282 171.732 357.905 180.884C343.528 190.035 326.373 193.765 309.504 191.407C292.636 189.049 277.153 180.758 265.824 168.013C269.914 177.602 276.035 186.185 283.763 193.167C291.491 200.15 300.642 205.365 310.581 208.451C320.521 211.538 331.011 212.422 341.325 211.042C351.639 209.663 361.53 206.052 370.314 200.462C379.097 194.871 386.563 187.433 392.193 178.663C397.823 169.894 401.484 160.003 402.921 149.675C404.358 139.347 403.537 128.829 400.516 118.851C397.494 108.873 392.344 99.6717 385.422 91.886V91.886Z" fill="black"/>
<path d="M332.229 139.929H332.426L335.975 343.858H328.482L332.229 139.929Z" fill="#3F3D56"/>
<path d="M345.298 251.008L343.644 247.861L331.779 254.121L333.433 257.268L345.298 251.008Z" fill="#3F3D56"/>
<path d="M320.465 335.027C320.465 335.027 320.768 328.661 326.983 329.401Z" fill="#3F3D56"/>
<path d="M318.709 328.969C320.427 328.969 321.82 327.573 321.82 325.852C321.82 324.13 320.427 322.735 318.709 322.735C316.991 322.735 315.599 324.13 315.599 325.852C315.599 327.573 316.991 328.969 318.709 328.969Z" fill="#D05F5F"/>
<path d="M319.081 331.101H318.203V337.26H319.081V331.101Z" fill="#3F3D56"/>
<path d="M361.291 346.905C361.291 346.905 361.594 340.539 367.809 341.279Z" fill="#3F3D56"/>
<path d="M359.535 340.847C361.253 340.847 362.646 339.451 362.646 337.73C362.646 336.008 361.253 334.613 359.535 334.613C357.817 334.613 356.425 336.008 356.425 337.73C356.425 339.451 357.817 340.847 359.535 340.847Z" fill="#D05F5F"/>
<path d="M359.907 342.979H359.029V349.138H359.907V342.979Z" fill="#3F3D56"/>
<path d="M143.113 349.544C143.113 349.544 143.416 343.179 149.631 343.918Z" fill="#3F3D56"/>
<path d="M141.357 343.486C143.075 343.486 144.468 342.091 144.468 340.369C144.468 338.648 143.075 337.252 141.357 337.252C139.639 337.252 138.247 338.648 138.247 340.369C138.247 342.091 139.639 343.486 141.357 343.486Z" fill="#D05F5F"/>
<path d="M141.729 345.618H140.851V351.777H141.729V345.618Z" fill="#3F3D56"/>
<path d="M345.049 339.426C345.049 339.426 345.352 333.06 351.566 333.8Z" fill="#3F3D56"/>
<path d="M343.292 333.368C345.01 333.368 346.403 331.973 346.403 330.251C346.403 328.53 345.01 327.134 343.292 327.134C341.575 327.134 340.182 328.53 340.182 330.251C340.182 331.973 341.575 333.368 343.292 333.368Z" fill="#D05F5F"/>
<path d="M343.665 335.5H342.787V341.659H343.665V335.5Z" fill="#3F3D56"/>
<path d="M176.758 160.172L180.799 156.933C177.66 156.586 176.37 158.302 175.842 159.66C173.389 158.639 170.719 159.977 170.719 159.977L178.805 162.919C178.397 161.827 177.687 160.874 176.758 160.172V160.172Z" fill="#3F3D56"/>
<path d="M238.216 193.167L242.258 189.928C239.118 189.581 237.828 191.297 237.3 192.655C234.848 191.634 232.178 192.972 232.178 192.972L240.263 195.914C239.856 194.822 239.145 193.869 238.216 193.167V193.167Z" fill="#3F3D56"/>
<path d="M171.929 221.323L175.97 218.084C172.831 217.737 171.541 219.452 171.013 220.81C168.56 219.79 165.89 221.127 165.89 221.127L173.976 224.069C173.568 222.977 172.858 222.025 171.929 221.323Z" fill="#3F3D56"/>
<path opacity="0.2" d="M307.935 303.962C307.944 311.04 306.49 318.042 303.664 324.529L212.63 278.811L205.707 275.366L215.088 274.852L296.394 270.399C304.133 279.409 307.935 291.138 307.935 303.962Z" fill="black"/>
<path d="M318.91 275.366H188.091V264.808L253.061 237.532L318.91 264.808V275.366Z" fill="#3F3D56"/>
</svg>
